<mxfile host="app.diagrams.net" modified="2024-04-16T19:21:59.738Z" agent="Mozilla/5.0 (Macintosh; Intel Mac OS X 10_15_7) AppleWebKit/537.36 (KHTML, like Gecko) Chrome/123.0.0.0 Safari/537.36" etag="DEcFRON5OG_6XuTaNofp" version="22.1.17" type="device" pages="3">
  <diagram name="Страница — 1" id="9ltvOdqolhENaTfDv0FR">
    <mxGraphModel dx="1028" dy="481" grid="1" gridSize="10" guides="1" tooltips="1" connect="1" arrows="1" fold="1" page="1" pageScale="1" pageWidth="827" pageHeight="1169" math="0" shadow="0">
      <root>
        <mxCell id="0" />
        <mxCell id="1" parent="0" />
        <mxCell id="tNp5fKbKo5NfurY45zzT-1" value="&lt;font style=&quot;font-size: 11px;&quot;&gt;Пользователь&lt;/font&gt;" style="shape=umlActor;verticalLabelPosition=bottom;verticalAlign=top;html=1;outlineConnect=0;" vertex="1" parent="1">
          <mxGeometry x="120" y="200" width="30" height="60" as="geometry" />
        </mxCell>
        <mxCell id="tNp5fKbKo5NfurY45zzT-3" value="" style="rounded=0;whiteSpace=wrap;html=1;" vertex="1" parent="1">
          <mxGeometry x="240" y="200" width="120" height="60" as="geometry" />
        </mxCell>
        <mxCell id="tNp5fKbKo5NfurY45zzT-4" value="Веб-приложение" style="text;html=1;strokeColor=none;fillColor=none;align=center;verticalAlign=middle;whiteSpace=wrap;rounded=0;" vertex="1" parent="1">
          <mxGeometry x="270" y="215" width="60" height="30" as="geometry" />
        </mxCell>
        <mxCell id="tNp5fKbKo5NfurY45zzT-5" value="" style="whiteSpace=wrap;html=1;aspect=fixed;" vertex="1" parent="1">
          <mxGeometry x="460" y="180" width="80" height="80" as="geometry" />
        </mxCell>
        <mxCell id="tNp5fKbKo5NfurY45zzT-6" value="Сервер" style="text;html=1;strokeColor=none;fillColor=none;align=center;verticalAlign=middle;whiteSpace=wrap;rounded=0;" vertex="1" parent="1">
          <mxGeometry x="470" y="205" width="60" height="30" as="geometry" />
        </mxCell>
        <mxCell id="tNp5fKbKo5NfurY45zzT-10" value="&lt;font style=&quot;font-size: 10px;&quot;&gt;http ответ&lt;br&gt;(данные)&lt;/font&gt;" style="text;html=1;strokeColor=none;fillColor=none;align=center;verticalAlign=middle;whiteSpace=wrap;rounded=0;" vertex="1" parent="1">
          <mxGeometry x="384" y="240" width="60" height="30" as="geometry" />
        </mxCell>
        <mxCell id="tNp5fKbKo5NfurY45zzT-12" value="" style="endArrow=classic;html=1;rounded=0;" edge="1" parent="1">
          <mxGeometry width="50" height="50" relative="1" as="geometry">
            <mxPoint x="160" y="230" as="sourcePoint" />
            <mxPoint x="240" y="230" as="targetPoint" />
          </mxGeometry>
        </mxCell>
        <mxCell id="tNp5fKbKo5NfurY45zzT-15" value="" style="endArrow=classic;html=1;rounded=0;exitX=1;exitY=0.25;exitDx=0;exitDy=0;" edge="1" parent="1" source="tNp5fKbKo5NfurY45zzT-3">
          <mxGeometry width="50" height="50" relative="1" as="geometry">
            <mxPoint x="470" y="150" as="sourcePoint" />
            <mxPoint x="460" y="215" as="targetPoint" />
          </mxGeometry>
        </mxCell>
        <mxCell id="tNp5fKbKo5NfurY45zzT-16" value="" style="endArrow=classic;html=1;rounded=0;exitX=0;exitY=0.75;exitDx=0;exitDy=0;" edge="1" parent="1" source="tNp5fKbKo5NfurY45zzT-5">
          <mxGeometry width="50" height="50" relative="1" as="geometry">
            <mxPoint x="460" y="220" as="sourcePoint" />
            <mxPoint x="360" y="240" as="targetPoint" />
          </mxGeometry>
        </mxCell>
        <mxCell id="tNp5fKbKo5NfurY45zzT-23" value="&lt;font style=&quot;font-size: 10px;&quot;&gt;http запрос&lt;br&gt;(данные)&lt;/font&gt;" style="text;html=1;strokeColor=none;fillColor=none;align=center;verticalAlign=middle;whiteSpace=wrap;rounded=0;" vertex="1" parent="1">
          <mxGeometry x="380" y="180" width="60" height="30" as="geometry" />
        </mxCell>
        <mxCell id="YWZqeEsWR3mVVG_1FCoy-2" value="&lt;font style=&quot;font-size: 10px;&quot;&gt;http запрос&lt;br&gt;(данные)&lt;/font&gt;" style="text;html=1;strokeColor=none;fillColor=none;align=center;verticalAlign=middle;whiteSpace=wrap;rounded=0;" vertex="1" parent="1">
          <mxGeometry x="170" y="190" width="60" height="30" as="geometry" />
        </mxCell>
      </root>
    </mxGraphModel>
  </diagram>
  <diagram id="eastwsB1p0k3cNOUsokU" name="Страница — 2">
    <mxGraphModel dx="2218" dy="651" grid="1" gridSize="10" guides="1" tooltips="1" connect="1" arrows="1" fold="1" page="1" pageScale="1" pageWidth="827" pageHeight="1169" math="0" shadow="0">
      <root>
        <mxCell id="0" />
        <mxCell id="1" parent="0" />
        <mxCell id="CrZYbo_9E4WuAQ9PFnVA-2" value="" style="rounded=0;whiteSpace=wrap;html=1;" vertex="1" parent="1">
          <mxGeometry x="790" y="210" width="120" height="60" as="geometry" />
        </mxCell>
        <mxCell id="CrZYbo_9E4WuAQ9PFnVA-1" value="" style="rounded=0;whiteSpace=wrap;html=1;" vertex="1" parent="1">
          <mxGeometry x="780" y="193.5" width="120" height="60" as="geometry" />
        </mxCell>
        <mxCell id="xc1ezt6yBFerV7LGfbOy-6" value="" style="rounded=0;whiteSpace=wrap;html=1;" vertex="1" parent="1">
          <mxGeometry x="770" y="176" width="120" height="60" as="geometry" />
        </mxCell>
        <mxCell id="IwyyCGpWSr64UmiOQ5aZ-1" value="&lt;font style=&quot;font-size: 12px;&quot;&gt;http запрос&lt;br&gt;(данные)&lt;/font&gt;" style="text;html=1;strokeColor=none;fillColor=none;align=center;verticalAlign=middle;whiteSpace=wrap;rounded=0;" vertex="1" parent="1">
          <mxGeometry x="-40" y="80" width="60" height="30" as="geometry" />
        </mxCell>
        <mxCell id="IwyyCGpWSr64UmiOQ5aZ-2" value="UserController" style="swimlane;fontStyle=0;childLayout=stackLayout;horizontal=1;startSize=26;horizontalStack=0;resizeParent=1;resizeParentMax=0;resizeLast=0;collapsible=1;marginBottom=0;align=center;fontSize=14;" vertex="1" parent="1">
          <mxGeometry x="450" y="116" width="160" height="120" as="geometry" />
        </mxCell>
        <mxCell id="IwyyCGpWSr64UmiOQ5aZ-3" value="/login" style="text;strokeColor=none;fillColor=none;spacingLeft=4;spacingRight=4;overflow=hidden;rotatable=0;points=[[0,0.5],[1,0.5]];portConstraint=eastwest;fontSize=12;whiteSpace=wrap;html=1;" vertex="1" parent="IwyyCGpWSr64UmiOQ5aZ-2">
          <mxGeometry y="26" width="160" height="30" as="geometry" />
        </mxCell>
        <mxCell id="IwyyCGpWSr64UmiOQ5aZ-4" value="/registration" style="text;strokeColor=none;fillColor=none;spacingLeft=4;spacingRight=4;overflow=hidden;rotatable=0;points=[[0,0.5],[1,0.5]];portConstraint=eastwest;fontSize=12;whiteSpace=wrap;html=1;" vertex="1" parent="IwyyCGpWSr64UmiOQ5aZ-2">
          <mxGeometry y="56" width="160" height="30" as="geometry" />
        </mxCell>
        <mxCell id="IwyyCGpWSr64UmiOQ5aZ-5" value="/account" style="text;strokeColor=none;fillColor=none;spacingLeft=4;spacingRight=4;overflow=hidden;rotatable=0;points=[[0,0.5],[1,0.5]];portConstraint=eastwest;fontSize=12;whiteSpace=wrap;html=1;" vertex="1" parent="IwyyCGpWSr64UmiOQ5aZ-2">
          <mxGeometry y="86" width="160" height="34" as="geometry" />
        </mxCell>
        <mxCell id="IwyyCGpWSr64UmiOQ5aZ-12" value="AdminController" style="swimlane;fontStyle=0;childLayout=stackLayout;horizontal=1;startSize=26;horizontalStack=0;resizeParent=1;resizeParentMax=0;resizeLast=0;collapsible=1;marginBottom=0;align=center;fontSize=14;" vertex="1" parent="1">
          <mxGeometry x="450" y="40" width="160" height="56" as="geometry" />
        </mxCell>
        <mxCell id="IwyyCGpWSr64UmiOQ5aZ-13" value="/admin" style="text;strokeColor=none;fillColor=none;spacingLeft=4;spacingRight=4;overflow=hidden;rotatable=0;points=[[0,0.5],[1,0.5]];portConstraint=eastwest;fontSize=12;whiteSpace=wrap;html=1;" vertex="1" parent="IwyyCGpWSr64UmiOQ5aZ-12">
          <mxGeometry y="26" width="160" height="30" as="geometry" />
        </mxCell>
        <mxCell id="IwyyCGpWSr64UmiOQ5aZ-18" value="" style="group" vertex="1" connectable="0" parent="1">
          <mxGeometry x="450" y="270" width="190" height="180" as="geometry" />
        </mxCell>
        <mxCell id="IwyyCGpWSr64UmiOQ5aZ-6" value="MainController" style="swimlane;fontStyle=0;childLayout=stackLayout;horizontal=1;startSize=26;horizontalStack=0;resizeParent=1;resizeParentMax=0;resizeLast=0;collapsible=1;marginBottom=0;align=center;fontSize=14;" vertex="1" parent="IwyyCGpWSr64UmiOQ5aZ-18">
          <mxGeometry width="190" height="180" as="geometry">
            <mxRectangle x="254" y="260" width="130" height="30" as="alternateBounds" />
          </mxGeometry>
        </mxCell>
        <mxCell id="IwyyCGpWSr64UmiOQ5aZ-7" value="/SportStorm" style="text;strokeColor=none;fillColor=none;spacingLeft=4;spacingRight=4;overflow=hidden;rotatable=0;points=[[0,0.5],[1,0.5]];portConstraint=eastwest;fontSize=12;whiteSpace=wrap;html=1;" vertex="1" parent="IwyyCGpWSr64UmiOQ5aZ-6">
          <mxGeometry y="26" width="190" height="30" as="geometry" />
        </mxCell>
        <mxCell id="IwyyCGpWSr64UmiOQ5aZ-8" value="/traningprogram" style="text;strokeColor=none;fillColor=none;spacingLeft=4;spacingRight=4;overflow=hidden;rotatable=0;points=[[0,0.5],[1,0.5]];portConstraint=eastwest;fontSize=12;whiteSpace=wrap;html=1;" vertex="1" parent="IwyyCGpWSr64UmiOQ5aZ-6">
          <mxGeometry y="56" width="190" height="30" as="geometry" />
        </mxCell>
        <mxCell id="IwyyCGpWSr64UmiOQ5aZ-9" value="/traningprogram/{progrName}" style="text;strokeColor=none;fillColor=none;spacingLeft=4;spacingRight=4;overflow=hidden;rotatable=0;points=[[0,0.5],[1,0.5]];portConstraint=eastwest;fontSize=12;whiteSpace=wrap;html=1;" vertex="1" parent="IwyyCGpWSr64UmiOQ5aZ-6">
          <mxGeometry y="86" width="190" height="94" as="geometry" />
        </mxCell>
        <mxCell id="IwyyCGpWSr64UmiOQ5aZ-16" value="/gymmachines" style="text;strokeColor=none;fillColor=none;spacingLeft=4;spacingRight=4;overflow=hidden;rotatable=0;points=[[0,0.5],[1,0.5]];portConstraint=eastwest;fontSize=12;whiteSpace=wrap;html=1;" vertex="1" parent="IwyyCGpWSr64UmiOQ5aZ-18">
          <mxGeometry y="116" width="186" height="30" as="geometry" />
        </mxCell>
        <mxCell id="IwyyCGpWSr64UmiOQ5aZ-17" value="/nutrionprogram" style="text;strokeColor=none;fillColor=none;spacingLeft=4;spacingRight=4;overflow=hidden;rotatable=0;points=[[0,0.5],[1,0.5]];portConstraint=eastwest;fontSize=12;whiteSpace=wrap;html=1;" vertex="1" parent="IwyyCGpWSr64UmiOQ5aZ-18">
          <mxGeometry y="150" width="186" height="20" as="geometry" />
        </mxCell>
        <mxCell id="IwyyCGpWSr64UmiOQ5aZ-19" value="&lt;span style=&quot;font-size: 14px;&quot;&gt;SecurityConfig&lt;/span&gt;" style="rounded=0;whiteSpace=wrap;html=1;" vertex="1" parent="1">
          <mxGeometry x="190" y="90" width="120" height="60" as="geometry" />
        </mxCell>
        <mxCell id="I-acHFiF5hvIjOzK_Lxx-1" value="" style="whiteSpace=wrap;html=1;aspect=fixed;" vertex="1" parent="1">
          <mxGeometry x="30" y="80" width="80" height="80" as="geometry" />
        </mxCell>
        <mxCell id="I-acHFiF5hvIjOzK_Lxx-2" value="Сервер" style="text;html=1;strokeColor=none;fillColor=none;align=center;verticalAlign=middle;whiteSpace=wrap;rounded=0;" vertex="1" parent="1">
          <mxGeometry x="40" y="105" width="60" height="30" as="geometry" />
        </mxCell>
        <mxCell id="I-acHFiF5hvIjOzK_Lxx-5" value="" style="endArrow=classic;html=1;rounded=0;exitX=1;exitY=0.5;exitDx=0;exitDy=0;entryX=0;entryY=0.5;entryDx=0;entryDy=0;" edge="1" parent="1" source="I-acHFiF5hvIjOzK_Lxx-1" target="IwyyCGpWSr64UmiOQ5aZ-19">
          <mxGeometry width="50" height="50" relative="1" as="geometry">
            <mxPoint x="370" y="305" as="sourcePoint" />
            <mxPoint x="420" y="255" as="targetPoint" />
          </mxGeometry>
        </mxCell>
        <mxCell id="I-acHFiF5hvIjOzK_Lxx-6" value="" style="endArrow=classic;html=1;rounded=0;entryX=0;entryY=0.5;entryDx=0;entryDy=0;" edge="1" parent="1" target="I-acHFiF5hvIjOzK_Lxx-1">
          <mxGeometry width="50" height="50" relative="1" as="geometry">
            <mxPoint x="-60" y="120" as="sourcePoint" />
            <mxPoint x="170" y="130" as="targetPoint" />
          </mxGeometry>
        </mxCell>
        <mxCell id="I-acHFiF5hvIjOzK_Lxx-11" value="&lt;font style=&quot;font-size: 14px;&quot;&gt;Service&lt;/font&gt;" style="text;html=1;strokeColor=none;fillColor=none;align=center;verticalAlign=middle;whiteSpace=wrap;rounded=0;" vertex="1" parent="1">
          <mxGeometry x="800" y="188.5" width="60" height="35" as="geometry" />
        </mxCell>
        <mxCell id="jRF7tr9VGY82QBjhz0-z-2" value="Фильтрация" style="text;html=1;strokeColor=none;fillColor=none;align=center;verticalAlign=middle;whiteSpace=wrap;rounded=0;" vertex="1" parent="1">
          <mxGeometry x="120" y="90" width="60" height="30" as="geometry" />
        </mxCell>
        <mxCell id="jRF7tr9VGY82QBjhz0-z-3" value="&lt;span style=&quot;color: rgb(0, 0, 0); font-family: Helvetica; font-size: 12px; font-style: normal; font-variant-ligatures: normal; font-variant-caps: normal; font-weight: 400; letter-spacing: normal; orphans: 2; text-indent: 0px; text-transform: none; widows: 2; word-spacing: 0px; -webkit-text-stroke-width: 0px; background-color: rgb(251, 251, 251); text-decoration-thickness: initial; text-decoration-style: initial; text-decoration-color: initial; float: none; display: inline !important;&quot;&gt;http &lt;br&gt;запрос&lt;/span&gt;&lt;br style=&quot;border-color: var(--border-color); color: rgb(0, 0, 0); font-family: Helvetica; font-size: 12px; font-style: normal; font-variant-ligatures: normal; font-variant-caps: normal; font-weight: 400; letter-spacing: normal; orphans: 2; text-indent: 0px; text-transform: none; widows: 2; word-spacing: 0px; -webkit-text-stroke-width: 0px; background-color: rgb(251, 251, 251); text-decoration-thickness: initial; text-decoration-style: initial; text-decoration-color: initial;&quot;&gt;&lt;span style=&quot;color: rgb(0, 0, 0); font-family: Helvetica; font-size: 12px; font-style: normal; font-variant-ligatures: normal; font-variant-caps: normal; font-weight: 400; letter-spacing: normal; orphans: 2; text-indent: 0px; text-transform: none; widows: 2; word-spacing: 0px; -webkit-text-stroke-width: 0px; background-color: rgb(251, 251, 251); text-decoration-thickness: initial; text-decoration-style: initial; text-decoration-color: initial; float: none; display: inline !important;&quot;&gt;(данные)&lt;/span&gt;" style="text;whiteSpace=wrap;html=1;align=center;" vertex="1" parent="1">
          <mxGeometry x="314" y="46" width="100" height="50" as="geometry" />
        </mxCell>
        <mxCell id="xc1ezt6yBFerV7LGfbOy-2" value="" style="endArrow=classic;html=1;rounded=0;exitX=1;exitY=0.25;exitDx=0;exitDy=0;entryX=0;entryY=0.5;entryDx=0;entryDy=0;edgeStyle=orthogonalEdgeStyle;" edge="1" parent="1" source="IwyyCGpWSr64UmiOQ5aZ-19" target="IwyyCGpWSr64UmiOQ5aZ-12">
          <mxGeometry width="50" height="50" relative="1" as="geometry">
            <mxPoint x="380" y="290" as="sourcePoint" />
            <mxPoint x="430" y="240" as="targetPoint" />
            <Array as="points">
              <mxPoint x="420" y="105" />
              <mxPoint x="420" y="68" />
            </Array>
          </mxGeometry>
        </mxCell>
        <mxCell id="xc1ezt6yBFerV7LGfbOy-3" value="" style="endArrow=classic;html=1;rounded=0;exitX=1;exitY=0.25;exitDx=0;exitDy=0;entryX=0;entryY=0.25;entryDx=0;entryDy=0;edgeStyle=orthogonalEdgeStyle;" edge="1" parent="1" source="IwyyCGpWSr64UmiOQ5aZ-19" target="IwyyCGpWSr64UmiOQ5aZ-2">
          <mxGeometry width="50" height="50" relative="1" as="geometry">
            <mxPoint x="330" y="240" as="sourcePoint" />
            <mxPoint x="380" y="190" as="targetPoint" />
            <Array as="points">
              <mxPoint x="420" y="105" />
              <mxPoint x="420" y="146" />
            </Array>
          </mxGeometry>
        </mxCell>
        <mxCell id="xc1ezt6yBFerV7LGfbOy-4" value="" style="endArrow=classic;html=1;rounded=0;exitX=1;exitY=0.25;exitDx=0;exitDy=0;entryX=-0.026;entryY=0.094;entryDx=0;entryDy=0;entryPerimeter=0;edgeStyle=orthogonalEdgeStyle;" edge="1" parent="1" source="IwyyCGpWSr64UmiOQ5aZ-19" target="IwyyCGpWSr64UmiOQ5aZ-6">
          <mxGeometry width="50" height="50" relative="1" as="geometry">
            <mxPoint x="350" y="250" as="sourcePoint" />
            <mxPoint x="400" y="200" as="targetPoint" />
            <Array as="points">
              <mxPoint x="420" y="105" />
              <mxPoint x="420" y="287" />
            </Array>
          </mxGeometry>
        </mxCell>
        <mxCell id="xc1ezt6yBFerV7LGfbOy-5" value="" style="endArrow=classic;html=1;rounded=0;exitX=1;exitY=0.25;exitDx=0;exitDy=0;entryX=0;entryY=0.25;entryDx=0;entryDy=0;edgeStyle=orthogonalEdgeStyle;" edge="1" parent="1" source="IwyyCGpWSr64UmiOQ5aZ-12" target="xc1ezt6yBFerV7LGfbOy-6">
          <mxGeometry width="50" height="50" relative="1" as="geometry">
            <mxPoint x="720" y="210" as="sourcePoint" />
            <mxPoint x="780" y="160" as="targetPoint" />
            <Array as="points">
              <mxPoint x="690" y="54" />
              <mxPoint x="690" y="191" />
            </Array>
          </mxGeometry>
        </mxCell>
        <mxCell id="xc1ezt6yBFerV7LGfbOy-7" value="" style="endArrow=classic;html=1;rounded=0;exitX=1;exitY=0.25;exitDx=0;exitDy=0;entryX=0;entryY=0.25;entryDx=0;entryDy=0;edgeStyle=orthogonalEdgeStyle;" edge="1" parent="1" source="IwyyCGpWSr64UmiOQ5aZ-2" target="xc1ezt6yBFerV7LGfbOy-6">
          <mxGeometry width="50" height="50" relative="1" as="geometry">
            <mxPoint x="710" y="280" as="sourcePoint" />
            <mxPoint x="760" y="230" as="targetPoint" />
            <Array as="points">
              <mxPoint x="690" y="146" />
              <mxPoint x="690" y="191" />
            </Array>
          </mxGeometry>
        </mxCell>
        <mxCell id="xc1ezt6yBFerV7LGfbOy-8" value="" style="endArrow=classic;html=1;rounded=0;exitX=1;exitY=0.106;exitDx=0;exitDy=0;exitPerimeter=0;entryX=0;entryY=0.25;entryDx=0;entryDy=0;edgeStyle=orthogonalEdgeStyle;" edge="1" parent="1" source="IwyyCGpWSr64UmiOQ5aZ-6" target="xc1ezt6yBFerV7LGfbOy-6">
          <mxGeometry width="50" height="50" relative="1" as="geometry">
            <mxPoint x="730" y="350" as="sourcePoint" />
            <mxPoint x="780" y="300" as="targetPoint" />
            <Array as="points">
              <mxPoint x="690" y="289" />
              <mxPoint x="690" y="191" />
            </Array>
          </mxGeometry>
        </mxCell>
        <mxCell id="xc1ezt6yBFerV7LGfbOy-10" value="Параметры" style="text;html=1;strokeColor=none;fillColor=none;align=center;verticalAlign=middle;whiteSpace=wrap;rounded=0;" vertex="1" parent="1">
          <mxGeometry x="700" y="150" width="60" height="30" as="geometry" />
        </mxCell>
        <mxCell id="vagKBopPA0SZyMXk1tJs-2" value="" style="endArrow=classic;html=1;rounded=0;exitX=0;exitY=0.75;exitDx=0;exitDy=0;entryX=1;entryY=0.5;entryDx=0;entryDy=0;edgeStyle=orthogonalEdgeStyle;shadow=0;fillColor=#212121;strokeWidth=2;" edge="1" parent="1" source="xc1ezt6yBFerV7LGfbOy-6" target="IwyyCGpWSr64UmiOQ5aZ-8">
          <mxGeometry width="50" height="50" relative="1" as="geometry">
            <mxPoint x="760" y="390" as="sourcePoint" />
            <mxPoint x="810" y="340" as="targetPoint" />
            <Array as="points">
              <mxPoint x="660" y="221" />
              <mxPoint x="660" y="341" />
            </Array>
          </mxGeometry>
        </mxCell>
        <mxCell id="vagKBopPA0SZyMXk1tJs-5" value="" style="endArrow=classic;html=1;rounded=0;exitX=0;exitY=0.75;exitDx=0;exitDy=0;entryX=1.013;entryY=1.033;entryDx=0;entryDy=0;edgeStyle=orthogonalEdgeStyle;shadow=0;fillColor=#212121;strokeWidth=2;entryPerimeter=0;" edge="1" parent="1" source="xc1ezt6yBFerV7LGfbOy-6" target="IwyyCGpWSr64UmiOQ5aZ-3">
          <mxGeometry width="50" height="50" relative="1" as="geometry">
            <mxPoint x="850" y="310" as="sourcePoint" />
            <mxPoint x="720" y="430" as="targetPoint" />
            <Array as="points">
              <mxPoint x="770" y="220" />
              <mxPoint x="660" y="220" />
              <mxPoint x="660" y="173" />
            </Array>
          </mxGeometry>
        </mxCell>
        <mxCell id="vagKBopPA0SZyMXk1tJs-6" value="" style="endArrow=classic;html=1;rounded=0;entryX=1;entryY=0.5;entryDx=0;entryDy=0;edgeStyle=orthogonalEdgeStyle;shadow=0;fillColor=#212121;strokeWidth=2;" edge="1" parent="1" target="IwyyCGpWSr64UmiOQ5aZ-13">
          <mxGeometry width="50" height="50" relative="1" as="geometry">
            <mxPoint x="770" y="220" as="sourcePoint" />
            <mxPoint x="622" y="183" as="targetPoint" />
            <Array as="points">
              <mxPoint x="770" y="220" />
              <mxPoint x="660" y="220" />
              <mxPoint x="660" y="81" />
            </Array>
          </mxGeometry>
        </mxCell>
        <mxCell id="9g-LKO1KwLt0NOr8Q8Dg-1" value="Данные" style="text;html=1;strokeColor=none;fillColor=none;align=center;verticalAlign=middle;whiteSpace=wrap;rounded=0;" vertex="1" parent="1">
          <mxGeometry x="700" y="223.5" width="60" height="30" as="geometry" />
        </mxCell>
        <mxCell id="9g-LKO1KwLt0NOr8Q8Dg-5" value="" style="endArrow=classic;html=1;rounded=0;exitX=0;exitY=0.5;exitDx=0;exitDy=0;entryX=1;entryY=0.75;entryDx=0;entryDy=0;edgeStyle=orthogonalEdgeStyle;strokeWidth=2;" edge="1" parent="1" source="IwyyCGpWSr64UmiOQ5aZ-13" target="I-acHFiF5hvIjOzK_Lxx-1">
          <mxGeometry width="50" height="50" relative="1" as="geometry">
            <mxPoint x="250" y="280" as="sourcePoint" />
            <mxPoint x="300" y="230" as="targetPoint" />
            <Array as="points">
              <mxPoint x="410" y="81" />
              <mxPoint x="410" y="120" />
              <mxPoint x="340" y="120" />
              <mxPoint x="340" y="210" />
              <mxPoint x="160" y="210" />
              <mxPoint x="160" y="140" />
            </Array>
          </mxGeometry>
        </mxCell>
        <mxCell id="9g-LKO1KwLt0NOr8Q8Dg-6" value="" style="endArrow=classic;html=1;rounded=0;exitX=-0.013;exitY=-0.017;exitDx=0;exitDy=0;exitPerimeter=0;entryX=1;entryY=0.75;entryDx=0;entryDy=0;strokeWidth=2;edgeStyle=orthogonalEdgeStyle;" edge="1" parent="1" source="IwyyCGpWSr64UmiOQ5aZ-4" target="I-acHFiF5hvIjOzK_Lxx-1">
          <mxGeometry width="50" height="50" relative="1" as="geometry">
            <mxPoint x="260" y="300" as="sourcePoint" />
            <mxPoint x="310" y="250" as="targetPoint" />
            <Array as="points">
              <mxPoint x="448" y="170" />
              <mxPoint x="340" y="170" />
              <mxPoint x="340" y="210" />
              <mxPoint x="160" y="210" />
              <mxPoint x="160" y="140" />
            </Array>
          </mxGeometry>
        </mxCell>
        <mxCell id="9g-LKO1KwLt0NOr8Q8Dg-7" value="" style="endArrow=classic;html=1;rounded=0;exitX=0;exitY=0.5;exitDx=0;exitDy=0;entryX=1;entryY=0.75;entryDx=0;entryDy=0;strokeWidth=2;edgeStyle=orthogonalEdgeStyle;" edge="1" parent="1" source="IwyyCGpWSr64UmiOQ5aZ-7" target="I-acHFiF5hvIjOzK_Lxx-1">
          <mxGeometry width="50" height="50" relative="1" as="geometry">
            <mxPoint x="280" y="280" as="sourcePoint" />
            <mxPoint x="330" y="230" as="targetPoint" />
            <Array as="points">
              <mxPoint x="340" y="311" />
              <mxPoint x="340" y="210" />
              <mxPoint x="160" y="210" />
              <mxPoint x="160" y="140" />
            </Array>
          </mxGeometry>
        </mxCell>
        <mxCell id="M52yeIKDHd8kAn0AJ1lW-1" value="&lt;font style=&quot;font-size: 12px;&quot;&gt;http &lt;br&gt;ответ&lt;br&gt;(данные)&lt;/font&gt;" style="text;html=1;strokeColor=none;fillColor=none;align=center;verticalAlign=middle;whiteSpace=wrap;rounded=0;" vertex="1" parent="1">
          <mxGeometry x="-40" y="150" width="60" height="30" as="geometry" />
        </mxCell>
        <mxCell id="M52yeIKDHd8kAn0AJ1lW-4" value="" style="endArrow=classic;html=1;rounded=0;exitX=0;exitY=0.75;exitDx=0;exitDy=0;" edge="1" parent="1" source="I-acHFiF5hvIjOzK_Lxx-1">
          <mxGeometry width="50" height="50" relative="1" as="geometry">
            <mxPoint x="60" y="270" as="sourcePoint" />
            <mxPoint x="-60" y="140" as="targetPoint" />
          </mxGeometry>
        </mxCell>
        <mxCell id="kLL1MuPadfB6wniVOWko-3" value="&lt;font style=&quot;font-size: 12px;&quot;&gt;http &lt;br&gt;ответ&lt;br&gt;(данные)&lt;/font&gt;" style="text;html=1;strokeColor=none;fillColor=none;align=center;verticalAlign=middle;whiteSpace=wrap;rounded=0;" vertex="1" parent="1">
          <mxGeometry x="210" y="220" width="60" height="30" as="geometry" />
        </mxCell>
      </root>
    </mxGraphModel>
  </diagram>
  <diagram id="S4R9fdzAZHUFZkbpbeHj" name="Страница — 3">
    <mxGraphModel dx="1478" dy="691" grid="1" gridSize="10" guides="1" tooltips="1" connect="1" arrows="1" fold="1" page="1" pageScale="1" pageWidth="827" pageHeight="1169" math="0" shadow="0">
      <root>
        <mxCell id="0" />
        <mxCell id="1" parent="0" />
        <mxCell id="i6VRMCcpgpbhSCwe1CEj-1" value="" style="rounded=0;whiteSpace=wrap;html=1;" vertex="1" parent="1">
          <mxGeometry x="70" y="100" width="120" height="60" as="geometry" />
        </mxCell>
        <mxCell id="i6VRMCcpgpbhSCwe1CEj-2" value="&lt;font style=&quot;font-size: 14px;&quot;&gt;Service&lt;/font&gt;" style="text;html=1;strokeColor=none;fillColor=none;align=center;verticalAlign=middle;whiteSpace=wrap;rounded=0;" vertex="1" parent="1">
          <mxGeometry x="100" y="115" width="60" height="30" as="geometry" />
        </mxCell>
        <mxCell id="i6VRMCcpgpbhSCwe1CEj-3" value="" style="endArrow=classic;html=1;rounded=0;exitX=1;exitY=0.25;exitDx=0;exitDy=0;" edge="1" parent="1" source="i6VRMCcpgpbhSCwe1CEj-1">
          <mxGeometry width="50" height="50" relative="1" as="geometry">
            <mxPoint x="300" y="160" as="sourcePoint" />
            <mxPoint x="280" y="115" as="targetPoint" />
          </mxGeometry>
        </mxCell>
        <mxCell id="i6VRMCcpgpbhSCwe1CEj-4" value="" style="rounded=0;whiteSpace=wrap;html=1;" vertex="1" parent="1">
          <mxGeometry x="280" y="100" width="120" height="60" as="geometry" />
        </mxCell>
        <mxCell id="i6VRMCcpgpbhSCwe1CEj-5" value="&lt;font style=&quot;font-size: 14px;&quot;&gt;Repository&lt;/font&gt;" style="text;html=1;strokeColor=none;fillColor=none;align=center;verticalAlign=middle;whiteSpace=wrap;rounded=0;" vertex="1" parent="1">
          <mxGeometry x="310" y="115" width="60" height="30" as="geometry" />
        </mxCell>
        <mxCell id="i6VRMCcpgpbhSCwe1CEj-9" value="" style="shape=cylinder3;whiteSpace=wrap;html=1;boundedLbl=1;backgroundOutline=1;size=15;" vertex="1" parent="1">
          <mxGeometry x="474" y="75" width="100" height="100" as="geometry" />
        </mxCell>
        <mxCell id="i6VRMCcpgpbhSCwe1CEj-10" value="" style="endArrow=classic;html=1;rounded=0;exitX=1;exitY=0.25;exitDx=0;exitDy=0;entryX=1;entryY=1;entryDx=0;entryDy=0;" edge="1" parent="1" source="i6VRMCcpgpbhSCwe1CEj-4" target="wfxQvrEBec0_HsgychUE-1">
          <mxGeometry width="50" height="50" relative="1" as="geometry">
            <mxPoint x="490" y="300" as="sourcePoint" />
            <mxPoint x="540" y="250" as="targetPoint" />
          </mxGeometry>
        </mxCell>
        <mxCell id="i6VRMCcpgpbhSCwe1CEj-11" value="" style="endArrow=classic;html=1;rounded=0;exitX=1;exitY=0;exitDx=0;exitDy=0;entryX=1;entryY=0.75;entryDx=0;entryDy=0;" edge="1" parent="1" source="piy3AdUaCJnTljHuhSW4-1" target="i6VRMCcpgpbhSCwe1CEj-4">
          <mxGeometry width="50" height="50" relative="1" as="geometry">
            <mxPoint x="430" y="300" as="sourcePoint" />
            <mxPoint x="480" y="250" as="targetPoint" />
          </mxGeometry>
        </mxCell>
        <mxCell id="i6VRMCcpgpbhSCwe1CEj-12" value="" style="endArrow=classic;html=1;rounded=0;exitX=0;exitY=0.75;exitDx=0;exitDy=0;entryX=1;entryY=0.75;entryDx=0;entryDy=0;" edge="1" parent="1" source="i6VRMCcpgpbhSCwe1CEj-4" target="i6VRMCcpgpbhSCwe1CEj-1">
          <mxGeometry width="50" height="50" relative="1" as="geometry">
            <mxPoint x="280" y="300" as="sourcePoint" />
            <mxPoint x="330" y="250" as="targetPoint" />
          </mxGeometry>
        </mxCell>
        <mxCell id="wfxQvrEBec0_HsgychUE-1" value="&lt;span style=&quot;font-size: 10px;&quot;&gt;SQL запрос&lt;/span&gt;" style="text;html=1;strokeColor=none;fillColor=none;align=center;verticalAlign=middle;whiteSpace=wrap;rounded=0;" vertex="1" parent="1">
          <mxGeometry x="410" y="85" width="60" height="30" as="geometry" />
        </mxCell>
        <mxCell id="piy3AdUaCJnTljHuhSW4-1" value="&lt;span style=&quot;font-size: 10px;&quot;&gt;Данные&lt;/span&gt;" style="text;html=1;strokeColor=none;fillColor=none;align=center;verticalAlign=middle;whiteSpace=wrap;rounded=0;" vertex="1" parent="1">
          <mxGeometry x="413.5" y="145" width="60" height="30" as="geometry" />
        </mxCell>
        <mxCell id="piy3AdUaCJnTljHuhSW4-2" value="&lt;span style=&quot;font-size: 10px;&quot;&gt;Параметры&lt;/span&gt;" style="text;html=1;strokeColor=none;fillColor=none;align=center;verticalAlign=middle;whiteSpace=wrap;rounded=0;" vertex="1" parent="1">
          <mxGeometry x="210" y="85" width="60" height="30" as="geometry" />
        </mxCell>
        <mxCell id="piy3AdUaCJnTljHuhSW4-3" value="&lt;span style=&quot;font-size: 10px;&quot;&gt;Данные&lt;/span&gt;" style="text;html=1;strokeColor=none;fillColor=none;align=center;verticalAlign=middle;whiteSpace=wrap;rounded=0;" vertex="1" parent="1">
          <mxGeometry x="210" y="145" width="60" height="30" as="geometry" />
        </mxCell>
        <mxCell id="NmML8Pel4AgzZPkEa6zS-1" value="&lt;span style=&quot;color: rgb(0, 0, 0); font-family: Helvetica; font-style: normal; font-variant-ligatures: normal; font-variant-caps: normal; font-weight: 400; letter-spacing: normal; orphans: 2; text-align: center; text-indent: 0px; text-transform: none; widows: 2; word-spacing: 0px; -webkit-text-stroke-width: 0px; background-color: rgb(251, 251, 251); text-decoration-thickness: initial; text-decoration-style: initial; text-decoration-color: initial; float: none; display: inline !important;&quot;&gt;&lt;font style=&quot;font-size: 14px;&quot;&gt;PostgreSQL&lt;/font&gt;&lt;/span&gt;" style="text;whiteSpace=wrap;html=1;" vertex="1" parent="1">
          <mxGeometry x="484" y="115" width="80" height="30" as="geometry" />
        </mxCell>
      </root>
    </mxGraphModel>
  </diagram>
</mxfile>
